<svg fill="none" height="92" viewBox="0 0 92 92" width="92" xmlns="http://www.w3.org/2000/svg"><rect fill="#4b53bc" height="91.5618" rx="45.7809" width="91.5618" y=".123047"/><g fill="#fff"><path d="m47.5778 38.0407c4.0298 0 7.2966-3.2697 7.2966-7.3031 0-4.0333-3.2668-7.303-7.2966-7.303s-7.2966 3.2697-7.2966 7.303c0 4.0334 3.2668 7.3031 7.2966 7.3031z"/><path d="m63.9955 38.5622c3.0221 0 5.472-2.4521 5.472-5.4769s-2.4499-5.4769-5.472-5.4769c-3.0222 0-5.4721 2.4521-5.4721 5.4769s2.4499 5.4769 5.4721 5.4769z"/><path d="m69.1526 40.127h-9.8279c-.2122 0-.4158.1055-.5658.2933-.1501.1878-.2344.4425-.2344.7081v12.6908c-.0271 1.8367.4509 3.6293 1.3537 5.0776.9029 1.4483 2.1759 2.4643 3.6059 2.878.9108.2392 1.8527.2211 2.7572-.0528.9045-.274 1.7488-.7969 2.4714-1.5308.7227-.7339 1.3055-1.6603 1.706-2.7117s.6086-2.2013.6092-3.3661v-11.6392c0-.6225-.1976-1.2196-.5492-1.6598-.3517-.4401-.8287-.6874-1.3261-.6874z"/><path d="m60.0853 42.4742v14.8659c.0015 2.7549-.9055 5.4333-2.5804 7.6196-1.6748 2.1862-4.0238 3.758-6.6825 4.4714-2.6586.7134-5.4781.5285-8.021-.526-2.5429-1.0544-4.667-2.9195-6.0426-5.3057-.3008-.5005-.5622-1.0237-.7817-1.5649-.2046-.5102-.3769-1.0329-.5159-1.5648-.2578-1.0233-.389-2.0744-.3909-3.1296v-14.8659c-.0004-.3084.06-.6138.1777-.8987.1177-.285.2904-.5439.5083-.762.2178-.218.4765-.3909.7612-.5087s.5899-.1783.898-.1778h20.3247c.308-.0005.6132.06.8979.1778s.5434.2907.7613.5087c.2178.2181.3905.477.5082.762.1177.2849.1781.5903.1777.8987z" stroke="#4b53bc" stroke-width="2"/><path d="m23.0841 33.8672h20.8468c.5528 0 1.0829.2198 1.4737.6109.3908.3912.6104.9218.6104 1.475v20.8654c0 .5532-.2196 1.0838-.6104 1.475s-.9209.6109-1.4737.6109h-20.8468c-.5528 0-1.0829-.2197-1.4737-.6109s-.6104-.9218-.6104-1.475v-20.8654c0-.5532.2196-1.0838.6104-1.475.3908-.3911.9209-.6109 1.4737-.6109z" stroke="#4b53bc" stroke-width="2"/></g><path d="m39.7301 41.653h-4.6747v12.5499h-3.0674v-12.5499h-4.7028v-3.0827h12.4449z" fill="#4b53bc" stroke="#fff"/></svg>